<?xml version="1.0" encoding="utf-8"?>
<!-- Generator: Adobe Illustrator 27.9.0, SVG Export Plug-In . SVG Version: 6.00 Build 0)  -->
<svg version="1.1" id="Layer_1" xmlns="http://www.w3.org/2000/svg" xmlns:xlink="http://www.w3.org/1999/xlink" x="0px" y="0px"
	 viewBox="0 0 500 250" style="enable-background:new 0 0 500 250;" xml:space="preserve">
<style type="text/css">
	.st0{fill:#FF6200;}
</style>
<g>
	<path class="st0" d="M152.5,133.3c9.8-16.4-3.8-36.2-25.5-36.2c-21.8,0-35.4,19.8-25.6,36.2c-7,8.1-0.5,19.5,11.4,19.5
		c4.8,0,9.6-2.1,12.4-6.2c0.9,0.1,2.7,0.1,3.6,0c2.7,4.1,7.5,6.2,12.4,6.2C153,152.8,159.5,141.3,152.5,133.3z M110.6,123v-7.2h5.1
		v7.2H110.6z M137.4,133.7c-6.9,3.1-16.8,1.6-23.2-4.1v-3.1c6.8,5.3,15.7,6.8,23.2,4.2V133.7z M118.7,123v-7.2h20.5v7.2H118.7z"/>
	<path class="st0" d="M165.3,117l2.1,22.4h6.3l3.8-8.1c0.9-2.1,1.5-3.7,2.7-6.9h0.1c0,2.7,0,4.9,0.2,7.2l0.7,7.8h6.2l10.9-22.4h-6.7
		l-3.8,9.4c-0.9,2.6-1.8,4.8-2.5,7.3h-0.1c0.1-2.4,0-4.6,0-7.2l-0.5-9.4h-5.4l-4.4,9.8c-0.9,2.2-2,4.5-2.7,6.9h-0.1
		c0.1-2.5,0.2-4.6,0.2-7.2v-9.5h-7V117z"/>
	<path class="st0" d="M202,148.6l1.8-9.5h0.1c0.8,0.4,2.3,0.9,4.2,0.9c7.8,0,13-7.2,13-15c0-4.6-2.3-8.5-7.2-8.5
		c-2.7,0-5.4,1.3-7.2,3.8h-0.1l0.4-3.2h-6c-0.3,2.3-0.8,6-1.3,8.7l-4.3,22.8H202z M205.6,129c0.8-4.4,3.1-7.2,5.6-7.2
		c2.2,0,2.9,1.9,2.9,3.7c0,4.4-2.7,9.4-6.3,9.4c-1.3,0-2.3-0.4-3-1.1L205.6,129z"/>
	<path class="st0" d="M229.1,106.9l-4.5,22.7c-0.3,1.3-0.5,2.7-0.5,4.1c0,4,2.7,6.3,8,6.3c10.1,0,14.8-8.4,14.8-15.7
		c0-4-2.1-7.8-6.8-7.8c-2.7,0-5.3,1.2-6.9,3.1h-0.1l2.7-12.8L229.1,106.9L229.1,106.9z M231.5,128.2c0.8-3.9,3.1-6.3,5.5-6.3
		c2,0,2.9,1.7,2.9,3.9c0,4-2.7,9.3-6.6,9.3c-1.5,0-2.5-0.9-2.5-2.5c0-0.9,0.1-1.8,0.2-2.5L231.5,128.2z"/>
	<path class="st0" d="M267.2,133.4c-1.8,0.9-3.9,1.4-6.3,1.4c-1.9,0-3.4-0.6-4.3-1.8c-0.5-0.6-0.7-1.7-0.7-2.3
		c9,0.2,14.5-1.8,14.5-7.6c0-4.2-3.2-6.7-7.8-6.7c-8.1,0-13.1,7.1-13.1,13.9c0,5.8,3.3,9.4,9.7,9.4c2.5,0,5.7-0.4,8.4-1.8
		L267.2,133.4z M264.3,123.2c0,2-2.6,2.7-7.7,2.7c0.4-2.1,2.2-4.6,5.3-4.6C263.4,121.4,264.3,122.1,264.3,123.2z"/>
	<path class="st0" d="M271.8,147.7c1.5,0.9,4.3,1.4,7.3,1.4s6.3-0.6,8.7-2.5c2.7-2.2,4-5.8,4.7-10l3.4-18.5c-2.3-1-5.1-1.6-8.3-1.6
		c-9.8,0-15.1,7.3-15.1,14.8c0,4.4,2.7,8,7.2,8c2.7,0,4.7-1,6.4-3.3h0.1l-0.4,1.9c-0.9,4.5-3.4,6-6.7,6c-1.9,0-4.6-0.5-5.9-1.3
		L271.8,147.7z M287.6,128c-0.7,3.8-2.9,6.2-5,6.2c-2,0-3-1.7-3-3.9c0-4.3,2.8-8.7,6.8-8.7c0.9,0,1.9,0.2,2.4,0.4L287.6,128z"/>
	<path class="st0" d="M304.1,139.5l4.3-22.4h-6.6l-4.3,22.4H304.1z M305.9,114.2c2.1,0,3.9-1.4,3.9-3.7c0-2-1.4-3.2-3.3-3.2
		c-2,0-3.8,1.5-3.8,3.8C302.7,113,304,114.2,305.9,114.2z"/>
	<path class="st0" d="M316.2,139.5l1.9-10c0.9-4.9,3.4-7.6,5.6-7.6c1.7,0,2.2,1.1,2.2,2.7c0,0.8-0.1,1.8-0.2,2.5l-2.3,12.5h6.6
		l2.5-13c0.2-1.1,0.4-2.8,0.4-3.8c0-3.9-2.1-6.1-5.7-6.1c-3,0-5.8,1.3-7.9,4.2h-0.1l0.5-3.7h-5.9c-0.3,2-0.6,4.5-1.2,7.3l-2.8,15.2
		L316.2,139.5L316.2,139.5z"/>
	<path class="st0" d="M342.1,139.5l1.9-10c0.9-4.9,3.4-7.6,5.6-7.6c1.7,0,2.2,1.1,2.2,2.7c0,0.8-0.1,1.8-0.2,2.5l-2.3,12.5h6.6
		l2.5-13c0.2-1.1,0.4-2.8,0.4-3.8c0-3.9-2.1-6.1-5.7-6.1c-3,0-5.8,1.3-7.9,4.2H345l0.4-3.7h-5.9c-0.3,2-0.6,4.5-1.2,7.3l-2.8,15.2
		L342.1,139.5L342.1,139.5z"/>
	<path class="st0" d="M379.6,133.4c-1.8,0.9-3.9,1.4-6.3,1.4c-1.9,0-3.4-0.6-4.3-1.8c-0.5-0.6-0.7-1.7-0.7-2.3
		c9,0.2,14.5-1.8,14.5-7.6c0-4.2-3.2-6.7-7.8-6.7c-8.1,0-13.1,7.1-13.1,13.9c0,5.8,3.3,9.4,9.7,9.4c2.5,0,5.7-0.4,8.4-1.8
		L379.6,133.4z M376.7,123.2c0,2-2.6,2.7-7.7,2.7c0.5-2.1,2.2-4.6,5.3-4.6C375.7,121.4,376.7,122.1,376.7,123.2z"/>
	<path class="st0" d="M390.9,139.5l1.6-8.4c0.8-4.4,2.8-8.2,7-8.2c0.4,0,0.7,0,1,0l1.3-6.4c-0.4,0-0.8,0-1.3,0
		c-3.1,0-5.6,2.1-7.2,5.1h-0.1c0.1-1.6,0.3-3.1,0.4-4.6h-5.7c-0.2,1.9-0.5,5.7-1.1,9.1l-2.5,13.4H390.9L390.9,139.5z"/>
</g>
</svg>
